<mxfile host="app.diagrams.net" agent="Mozilla/5.0 (Windows NT 10.0; Win64; x64) AppleWebKit/537.36 (KHTML, like Gecko) Chrome/130.0.0.0 Safari/537.36" version="24.8.0">
  <diagram name="Page-1" id="zb8tNWO0_LRHRKbwq5VY">
    <mxGraphModel dx="4075" dy="3723" grid="1" gridSize="10" guides="1" tooltips="1" connect="1" arrows="1" fold="1" page="1" pageScale="1" pageWidth="850" pageHeight="1100" math="0" shadow="0">
      <root>
        <mxCell id="0" />
        <mxCell id="1" parent="0" />
        <mxCell id="tr2VnkEWY_S0yRt-9hmw-61" value="" style="rounded=0;whiteSpace=wrap;html=1;" vertex="1" parent="1">
          <mxGeometry x="-630" y="-1620" width="1990" height="2400" as="geometry" />
        </mxCell>
        <mxCell id="Id6j_bL2dgH8pBZ8McrD-12" value="" style="shape=flexArrow;endArrow=classic;html=1;rounded=0;" parent="1" edge="1">
          <mxGeometry width="50" height="50" relative="1" as="geometry">
            <mxPoint x="460" y="-1377" as="sourcePoint" />
            <mxPoint x="460" y="-1040" as="targetPoint" />
            <Array as="points">
              <mxPoint x="460" y="-1310" />
            </Array>
          </mxGeometry>
        </mxCell>
        <mxCell id="gCZMAkZjdpwK_4TFtWU5-113" value="" style="group" parent="1" vertex="1" connectable="0">
          <mxGeometry x="290" y="-1320" width="440" height="200" as="geometry" />
        </mxCell>
        <mxCell id="gCZMAkZjdpwK_4TFtWU5-103" value="" style="rounded=1;whiteSpace=wrap;html=1;" parent="gCZMAkZjdpwK_4TFtWU5-113" vertex="1">
          <mxGeometry x="-20" width="390" height="200" as="geometry" />
        </mxCell>
        <mxCell id="gCZMAkZjdpwK_4TFtWU5-107" value="" style="image;aspect=fixed;html=1;points=[];align=center;fontSize=12;image=img/lib/azure2/security/Multifactor_Authentication.svg;" parent="gCZMAkZjdpwK_4TFtWU5-113" vertex="1">
          <mxGeometry x="161.06903268668617" y="40" width="27.85458410842413" height="34.189742226946585" as="geometry" />
        </mxCell>
        <mxCell id="gCZMAkZjdpwK_4TFtWU5-109" value="&lt;font style=&quot;font-size: 18px;&quot;&gt;User Authentication&lt;/font&gt;&lt;div style=&quot;font-size: 18px;&quot;&gt;&lt;font style=&quot;font-size: 18px;&quot;&gt;(Google Auth/Other)&lt;/font&gt;&lt;/div&gt;" style="text;strokeColor=none;align=center;fillColor=none;html=1;verticalAlign=middle;whiteSpace=wrap;rounded=0;" parent="gCZMAkZjdpwK_4TFtWU5-113" vertex="1">
          <mxGeometry x="131.39434759500398" y="130" width="87.20898219505715" height="30" as="geometry" />
        </mxCell>
        <mxCell id="Id6j_bL2dgH8pBZ8McrD-48" value="" style="group" parent="1" vertex="1" connectable="0">
          <mxGeometry x="50" y="-1590" width="830" height="210" as="geometry" />
        </mxCell>
        <mxCell id="Id6j_bL2dgH8pBZ8McrD-3" value="" style="endArrow=classic;html=1;rounded=0;exitX=0.087;exitY=0.711;exitDx=0;exitDy=0;exitPerimeter=0;" parent="Id6j_bL2dgH8pBZ8McrD-48" edge="1">
          <mxGeometry width="50" height="50" relative="1" as="geometry">
            <mxPoint x="386.3499999999999" y="65.54999999999995" as="sourcePoint" />
            <mxPoint x="130" y="160" as="targetPoint" />
          </mxGeometry>
        </mxCell>
        <mxCell id="Id6j_bL2dgH8pBZ8McrD-5" value="" style="endArrow=classic;html=1;rounded=0;entryX=0.5;entryY=0;entryDx=0;entryDy=0;exitX=0.979;exitY=0.756;exitDx=0;exitDy=0;exitPerimeter=0;" parent="Id6j_bL2dgH8pBZ8McrD-48" target="Id6j_bL2dgH8pBZ8McrD-20" edge="1">
          <mxGeometry width="50" height="50" relative="1" as="geometry">
            <mxPoint x="432.95000000000005" y="67.80000000000018" as="sourcePoint" />
            <mxPoint x="725" y="170" as="targetPoint" />
          </mxGeometry>
        </mxCell>
        <mxCell id="Id6j_bL2dgH8pBZ8McrD-8" value="" style="edgeStyle=none;orthogonalLoop=1;jettySize=auto;html=1;rounded=0;entryX=0.497;entryY=0.133;entryDx=0;entryDy=0;entryPerimeter=0;" parent="Id6j_bL2dgH8pBZ8McrD-48" edge="1">
          <mxGeometry width="80" relative="1" as="geometry">
            <mxPoint x="410" y="80" as="sourcePoint" />
            <mxPoint x="409.3699999999999" y="158.99" as="targetPoint" />
            <Array as="points" />
          </mxGeometry>
        </mxCell>
        <mxCell id="Id6j_bL2dgH8pBZ8McrD-18" value="" style="group" parent="Id6j_bL2dgH8pBZ8McrD-48" vertex="1" connectable="0">
          <mxGeometry y="160" width="230" height="50" as="geometry" />
        </mxCell>
        <mxCell id="Id6j_bL2dgH8pBZ8McrD-13" value="" style="rounded=1;whiteSpace=wrap;html=1;" parent="Id6j_bL2dgH8pBZ8McrD-18" vertex="1">
          <mxGeometry x="30" width="170" height="50" as="geometry" />
        </mxCell>
        <mxCell id="Id6j_bL2dgH8pBZ8McrD-6" value="&lt;span style=&quot;font-size: 18px;&quot;&gt;Explore Platform&lt;/span&gt;" style="text;strokeColor=none;align=center;fillColor=none;html=1;verticalAlign=middle;whiteSpace=wrap;rounded=0;border1;" parent="Id6j_bL2dgH8pBZ8McrD-18" vertex="1">
          <mxGeometry y="10" width="230" height="30" as="geometry" />
        </mxCell>
        <mxCell id="Id6j_bL2dgH8pBZ8McrD-19" value="" style="group" parent="Id6j_bL2dgH8pBZ8McrD-48" vertex="1" connectable="0">
          <mxGeometry x="600" y="160" width="230" height="50" as="geometry" />
        </mxCell>
        <mxCell id="Id6j_bL2dgH8pBZ8McrD-20" value="" style="rounded=1;whiteSpace=wrap;html=1;" parent="Id6j_bL2dgH8pBZ8McrD-19" vertex="1">
          <mxGeometry x="30" width="170" height="50" as="geometry" />
        </mxCell>
        <mxCell id="Id6j_bL2dgH8pBZ8McrD-21" value="&lt;span style=&quot;font-size: 18px;&quot;&gt;Privacy Policy&lt;/span&gt;" style="text;strokeColor=none;align=center;fillColor=none;html=1;verticalAlign=middle;whiteSpace=wrap;rounded=0;border1;" parent="Id6j_bL2dgH8pBZ8McrD-19" vertex="1">
          <mxGeometry y="10" width="230" height="30" as="geometry" />
        </mxCell>
        <mxCell id="Id6j_bL2dgH8pBZ8McrD-25" value="" style="group" parent="Id6j_bL2dgH8pBZ8McrD-48" vertex="1" connectable="0">
          <mxGeometry x="300" y="160" width="230" height="50" as="geometry" />
        </mxCell>
        <mxCell id="Id6j_bL2dgH8pBZ8McrD-26" value="" style="rounded=1;whiteSpace=wrap;html=1;" parent="Id6j_bL2dgH8pBZ8McrD-25" vertex="1">
          <mxGeometry x="30" width="170" height="50" as="geometry" />
        </mxCell>
        <mxCell id="Id6j_bL2dgH8pBZ8McrD-27" value="&lt;span style=&quot;font-size: 18px;&quot;&gt;Login/Register&lt;/span&gt;" style="text;strokeColor=none;align=center;fillColor=none;html=1;verticalAlign=middle;whiteSpace=wrap;rounded=0;border1;" parent="Id6j_bL2dgH8pBZ8McrD-25" vertex="1">
          <mxGeometry y="10" width="230" height="30" as="geometry" />
        </mxCell>
        <mxCell id="Id6j_bL2dgH8pBZ8McrD-36" value="" style="group" parent="Id6j_bL2dgH8pBZ8McrD-48" vertex="1" connectable="0">
          <mxGeometry x="360" width="100" height="80" as="geometry" />
        </mxCell>
        <mxCell id="Id6j_bL2dgH8pBZ8McrD-37" value="" style="html=1;verticalLabelPosition=bottom;align=center;labelBackgroundColor=#ffffff;verticalAlign=top;strokeWidth=2;strokeColor=#0080F0;shadow=0;dashed=0;shape=mxgraph.ios7.icons.user;" parent="Id6j_bL2dgH8pBZ8McrD-36" vertex="1">
          <mxGeometry x="25" y="30" width="50" height="50" as="geometry" />
        </mxCell>
        <mxCell id="Id6j_bL2dgH8pBZ8McrD-38" value="&lt;font style=&quot;font-size: 18px;&quot;&gt;New User&lt;/font&gt;" style="text;strokeColor=none;align=center;fillColor=none;html=1;verticalAlign=middle;whiteSpace=wrap;rounded=0;" parent="Id6j_bL2dgH8pBZ8McrD-36" vertex="1">
          <mxGeometry width="100" height="30" as="geometry" />
        </mxCell>
        <mxCell id="Id6j_bL2dgH8pBZ8McrD-49" value="" style="group" parent="1" vertex="1" connectable="0">
          <mxGeometry x="50" y="-1040" width="830" height="210" as="geometry" />
        </mxCell>
        <mxCell id="Id6j_bL2dgH8pBZ8McrD-50" value="" style="endArrow=classic;html=1;rounded=0;exitX=0.087;exitY=0.711;exitDx=0;exitDy=0;exitPerimeter=0;" parent="Id6j_bL2dgH8pBZ8McrD-49" edge="1">
          <mxGeometry width="50" height="50" relative="1" as="geometry">
            <mxPoint x="386.3499999999999" y="65.54999999999995" as="sourcePoint" />
            <mxPoint x="130" y="160" as="targetPoint" />
          </mxGeometry>
        </mxCell>
        <mxCell id="Id6j_bL2dgH8pBZ8McrD-51" value="" style="endArrow=classic;html=1;rounded=0;entryX=0.5;entryY=0;entryDx=0;entryDy=0;exitX=0.979;exitY=0.756;exitDx=0;exitDy=0;exitPerimeter=0;" parent="Id6j_bL2dgH8pBZ8McrD-49" edge="1">
          <mxGeometry width="50" height="50" relative="1" as="geometry">
            <mxPoint x="431.95000000000005" y="67.80000000000018" as="sourcePoint" />
            <mxPoint x="714" y="160" as="targetPoint" />
          </mxGeometry>
        </mxCell>
        <mxCell id="Id6j_bL2dgH8pBZ8McrD-52" value="" style="edgeStyle=none;orthogonalLoop=1;jettySize=auto;html=1;rounded=0;entryX=0.497;entryY=0.133;entryDx=0;entryDy=0;entryPerimeter=0;" parent="Id6j_bL2dgH8pBZ8McrD-49" edge="1">
          <mxGeometry width="80" relative="1" as="geometry">
            <mxPoint x="410" y="80" as="sourcePoint" />
            <mxPoint x="409.3699999999999" y="158.99" as="targetPoint" />
            <Array as="points" />
          </mxGeometry>
        </mxCell>
        <mxCell id="Id6j_bL2dgH8pBZ8McrD-53" value="" style="group" parent="Id6j_bL2dgH8pBZ8McrD-49" vertex="1" connectable="0">
          <mxGeometry y="160" width="230" height="50" as="geometry" />
        </mxCell>
        <mxCell id="Id6j_bL2dgH8pBZ8McrD-54" value="" style="rounded=1;whiteSpace=wrap;html=1;" parent="Id6j_bL2dgH8pBZ8McrD-53" vertex="1">
          <mxGeometry x="30" width="170" height="50" as="geometry" />
        </mxCell>
        <mxCell id="Id6j_bL2dgH8pBZ8McrD-55" value="&lt;span style=&quot;font-size: 18px;&quot;&gt;Data Sharing&lt;/span&gt;" style="text;strokeColor=none;align=center;fillColor=none;html=1;verticalAlign=middle;whiteSpace=wrap;rounded=0;border1;" parent="Id6j_bL2dgH8pBZ8McrD-53" vertex="1">
          <mxGeometry y="10" width="230" height="30" as="geometry" />
        </mxCell>
        <mxCell id="Id6j_bL2dgH8pBZ8McrD-56" value="" style="group" parent="Id6j_bL2dgH8pBZ8McrD-49" vertex="1" connectable="0">
          <mxGeometry x="600" y="160" width="230" height="50" as="geometry" />
        </mxCell>
        <mxCell id="Id6j_bL2dgH8pBZ8McrD-57" value="" style="rounded=1;whiteSpace=wrap;html=1;" parent="Id6j_bL2dgH8pBZ8McrD-56" vertex="1">
          <mxGeometry x="30" width="170" height="50" as="geometry" />
        </mxCell>
        <mxCell id="Id6j_bL2dgH8pBZ8McrD-58" value="&lt;span style=&quot;font-size: 18px;&quot;&gt;View received data&lt;/span&gt;" style="text;strokeColor=none;align=center;fillColor=none;html=1;verticalAlign=middle;whiteSpace=wrap;rounded=0;border1;" parent="Id6j_bL2dgH8pBZ8McrD-56" vertex="1">
          <mxGeometry y="10" width="230" height="30" as="geometry" />
        </mxCell>
        <mxCell id="Id6j_bL2dgH8pBZ8McrD-59" value="" style="group" parent="Id6j_bL2dgH8pBZ8McrD-49" vertex="1" connectable="0">
          <mxGeometry x="300" y="160" width="230" height="50" as="geometry" />
        </mxCell>
        <mxCell id="Id6j_bL2dgH8pBZ8McrD-60" value="" style="rounded=1;whiteSpace=wrap;html=1;" parent="Id6j_bL2dgH8pBZ8McrD-59" vertex="1">
          <mxGeometry x="30" width="170" height="50" as="geometry" />
        </mxCell>
        <mxCell id="Id6j_bL2dgH8pBZ8McrD-61" value="&lt;span style=&quot;font-size: 18px;&quot;&gt;Activity Log&lt;/span&gt;" style="text;strokeColor=none;align=center;fillColor=none;html=1;verticalAlign=middle;whiteSpace=wrap;rounded=0;border1;" parent="Id6j_bL2dgH8pBZ8McrD-59" vertex="1">
          <mxGeometry y="10" width="230" height="30" as="geometry" />
        </mxCell>
        <mxCell id="Id6j_bL2dgH8pBZ8McrD-62" value="" style="group" parent="Id6j_bL2dgH8pBZ8McrD-49" vertex="1" connectable="0">
          <mxGeometry x="360" width="150" height="80" as="geometry" />
        </mxCell>
        <mxCell id="Id6j_bL2dgH8pBZ8McrD-63" value="" style="html=1;verticalLabelPosition=bottom;align=center;labelBackgroundColor=#ffffff;verticalAlign=top;strokeWidth=2;strokeColor=#0080F0;shadow=0;dashed=0;shape=mxgraph.ios7.icons.user;" parent="Id6j_bL2dgH8pBZ8McrD-62" vertex="1">
          <mxGeometry x="25" y="30" width="50" height="50" as="geometry" />
        </mxCell>
        <mxCell id="Id6j_bL2dgH8pBZ8McrD-64" value="&lt;span style=&quot;font-size: 18px;&quot;&gt;Registered User&lt;/span&gt;" style="text;strokeColor=none;align=center;fillColor=none;html=1;verticalAlign=middle;whiteSpace=wrap;rounded=0;" parent="Id6j_bL2dgH8pBZ8McrD-62" vertex="1">
          <mxGeometry x="-23" width="150" height="30" as="geometry" />
        </mxCell>
        <mxCell id="Id6j_bL2dgH8pBZ8McrD-73" value="" style="endArrow=classic;html=1;rounded=0;exitX=0.004;exitY=0.439;exitDx=0;exitDy=0;exitPerimeter=0;entryX=1;entryY=0.5;entryDx=0;entryDy=0;" parent="Id6j_bL2dgH8pBZ8McrD-49" edge="1">
          <mxGeometry width="50" height="50" relative="1" as="geometry">
            <mxPoint x="385.1999999999998" y="57.94999999999982" as="sourcePoint" />
            <mxPoint y="56" as="targetPoint" />
          </mxGeometry>
        </mxCell>
        <mxCell id="Id6j_bL2dgH8pBZ8McrD-74" value="" style="group" parent="Id6j_bL2dgH8pBZ8McrD-49" vertex="1" connectable="0">
          <mxGeometry x="-120" y="30" width="120" height="60" as="geometry" />
        </mxCell>
        <mxCell id="Id6j_bL2dgH8pBZ8McrD-75" value="" style="rounded=1;whiteSpace=wrap;html=1;" parent="Id6j_bL2dgH8pBZ8McrD-74" vertex="1">
          <mxGeometry width="120" height="60" as="geometry" />
        </mxCell>
        <mxCell id="Id6j_bL2dgH8pBZ8McrD-76" value="Profile Management" style="text;strokeColor=none;align=center;fillColor=none;html=1;verticalAlign=middle;whiteSpace=wrap;rounded=0;" parent="Id6j_bL2dgH8pBZ8McrD-74" vertex="1">
          <mxGeometry x="30" y="15" width="60" height="30" as="geometry" />
        </mxCell>
        <mxCell id="Id6j_bL2dgH8pBZ8McrD-70" value="" style="endArrow=classic;html=1;rounded=0;exitX=1.003;exitY=0.48;exitDx=0;exitDy=0;exitPerimeter=0;entryX=0;entryY=0.5;entryDx=0;entryDy=0;" parent="1" edge="1">
          <mxGeometry width="50" height="50" relative="1" as="geometry">
            <mxPoint x="485.14999999999986" y="-979" as="sourcePoint" />
            <mxPoint x="890" y="-979" as="targetPoint" />
          </mxGeometry>
        </mxCell>
        <mxCell id="HgYVkoj45hchb5zf_kP9-1" value="" style="endArrow=classic;html=1;rounded=0;" parent="1" edge="1">
          <mxGeometry width="50" height="50" relative="1" as="geometry">
            <mxPoint x="160" y="-830" as="sourcePoint" />
            <mxPoint x="160" y="-750" as="targetPoint" />
          </mxGeometry>
        </mxCell>
        <mxCell id="HgYVkoj45hchb5zf_kP9-4" value="" style="group" parent="1" vertex="1" connectable="0">
          <mxGeometry x="70" y="-750" width="250" height="60" as="geometry" />
        </mxCell>
        <mxCell id="HgYVkoj45hchb5zf_kP9-2" value="" style="rounded=1;whiteSpace=wrap;html=1;" parent="HgYVkoj45hchb5zf_kP9-4" vertex="1">
          <mxGeometry x="-60" width="290" height="60" as="geometry" />
        </mxCell>
        <mxCell id="HgYVkoj45hchb5zf_kP9-3" value="&lt;font style=&quot;font-size: 18px;&quot;&gt;Share Data&amp;nbsp;&lt;/font&gt;&lt;div style=&quot;font-size: 18px;&quot;&gt;&lt;font style=&quot;font-size: 18px;&quot;&gt;(Initiate a P2P Network)&lt;/font&gt;&lt;/div&gt;" style="text;strokeColor=none;align=center;fillColor=none;html=1;verticalAlign=middle;whiteSpace=wrap;rounded=0;" parent="HgYVkoj45hchb5zf_kP9-4" vertex="1">
          <mxGeometry x="-10" y="15" width="220" height="30" as="geometry" />
        </mxCell>
        <mxCell id="HgYVkoj45hchb5zf_kP9-5" value="" style="endArrow=classic;html=1;rounded=0;" parent="1" edge="1">
          <mxGeometry width="50" height="50" relative="1" as="geometry">
            <mxPoint x="762" y="-830" as="sourcePoint" />
            <mxPoint x="762" y="-750" as="targetPoint" />
          </mxGeometry>
        </mxCell>
        <mxCell id="HgYVkoj45hchb5zf_kP9-28" value="" style="endArrow=classic;html=1;rounded=0;entryX=0.5;entryY=0;entryDx=0;entryDy=0;exitX=0.5;exitY=1;exitDx=0;exitDy=0;" parent="1" edge="1" target="HgYVkoj45hchb5zf_kP9-31" source="tr2VnkEWY_S0yRt-9hmw-23">
          <mxGeometry width="50" height="50" relative="1" as="geometry">
            <mxPoint x="160" y="-270" as="sourcePoint" />
            <mxPoint y="-400" as="targetPoint" />
          </mxGeometry>
        </mxCell>
        <mxCell id="HgYVkoj45hchb5zf_kP9-29" value="" style="endArrow=classic;html=1;rounded=0;entryX=0.5;entryY=0;entryDx=0;entryDy=0;exitX=0.5;exitY=1;exitDx=0;exitDy=0;" parent="1" edge="1" target="tr2VnkEWY_S0yRt-9hmw-2" source="tr2VnkEWY_S0yRt-9hmw-23">
          <mxGeometry width="50" height="50" relative="1" as="geometry">
            <mxPoint x="150" y="-80" as="sourcePoint" />
            <mxPoint x="170.41" y="-390" as="targetPoint" />
            <Array as="points" />
          </mxGeometry>
        </mxCell>
        <mxCell id="HgYVkoj45hchb5zf_kP9-30" value="" style="group" parent="1" vertex="1" connectable="0">
          <mxGeometry x="-230" y="-100" width="330" height="90" as="geometry" />
        </mxCell>
        <mxCell id="HgYVkoj45hchb5zf_kP9-31" value="" style="rounded=1;whiteSpace=wrap;html=1;" parent="HgYVkoj45hchb5zf_kP9-30" vertex="1">
          <mxGeometry width="301.304347826087" height="90" as="geometry" />
        </mxCell>
        <mxCell id="HgYVkoj45hchb5zf_kP9-32" value="&lt;span style=&quot;font-size: 18px;&quot;&gt;Directly share the data with user&amp;nbsp;&lt;/span&gt;" style="text;strokeColor=none;align=center;fillColor=none;html=1;verticalAlign=middle;whiteSpace=wrap;rounded=0;" parent="HgYVkoj45hchb5zf_kP9-30" vertex="1">
          <mxGeometry x="-4.0005739130434765" y="17.5" width="315.6521739130435" height="55" as="geometry" />
        </mxCell>
        <mxCell id="HgYVkoj45hchb5zf_kP9-33" value="" style="endArrow=classic;html=1;rounded=0;exitX=0.488;exitY=1.003;exitDx=0;exitDy=0;exitPerimeter=0;" parent="1" edge="1" source="tr2VnkEWY_S0yRt-9hmw-2">
          <mxGeometry width="50" height="50" relative="1" as="geometry">
            <mxPoint x="400" y="40" as="sourcePoint" />
            <mxPoint x="392" y="180" as="targetPoint" />
          </mxGeometry>
        </mxCell>
        <mxCell id="HgYVkoj45hchb5zf_kP9-38" value="" style="endArrow=classic;html=1;rounded=0;exitX=0.5;exitY=1;exitDx=0;exitDy=0;" parent="1" edge="1">
          <mxGeometry width="50" height="50" relative="1" as="geometry">
            <mxPoint x="395.6421739130435" y="270" as="sourcePoint" />
            <mxPoint x="395" y="480" as="targetPoint" />
          </mxGeometry>
        </mxCell>
        <mxCell id="tr2VnkEWY_S0yRt-9hmw-1" value="" style="group" vertex="1" connectable="0" parent="1">
          <mxGeometry x="245" y="-100" width="330" height="90" as="geometry" />
        </mxCell>
        <mxCell id="tr2VnkEWY_S0yRt-9hmw-2" value="" style="rounded=1;whiteSpace=wrap;html=1;" vertex="1" parent="tr2VnkEWY_S0yRt-9hmw-1">
          <mxGeometry width="301.304347826087" height="90" as="geometry" />
        </mxCell>
        <mxCell id="tr2VnkEWY_S0yRt-9hmw-3" value="&lt;span style=&quot;font-size: 18px;&quot;&gt;Upload the data and necessary&lt;/span&gt;&lt;div&gt;&lt;span style=&quot;font-size: 18px;&quot;&gt;info to data storge&lt;/span&gt;&lt;/div&gt;" style="text;strokeColor=none;align=center;fillColor=none;html=1;verticalAlign=middle;whiteSpace=wrap;rounded=0;" vertex="1" parent="tr2VnkEWY_S0yRt-9hmw-1">
          <mxGeometry x="-4.0005739130434765" y="17.5" width="315.6521739130435" height="55" as="geometry" />
        </mxCell>
        <mxCell id="tr2VnkEWY_S0yRt-9hmw-4" value="&lt;font style=&quot;font-size: 18px;&quot;&gt;Receiver is Live&lt;/font&gt;" style="text;strokeColor=none;align=center;fillColor=none;html=1;verticalAlign=middle;whiteSpace=wrap;rounded=0;rotation=-40;" vertex="1" parent="1">
          <mxGeometry x="-53" y="-215" width="130" height="30" as="geometry" />
        </mxCell>
        <mxCell id="tr2VnkEWY_S0yRt-9hmw-5" value="&lt;font style=&quot;font-size: 18px;&quot;&gt;Receiver is not Live&lt;/font&gt;" style="text;strokeColor=none;align=center;fillColor=none;html=1;verticalAlign=middle;whiteSpace=wrap;rounded=0;rotation=40;" vertex="1" parent="1">
          <mxGeometry x="230" y="-205" width="177.4" height="20" as="geometry" />
        </mxCell>
        <mxCell id="tr2VnkEWY_S0yRt-9hmw-8" value="&lt;span style=&quot;font-size: 18px;&quot;&gt;Get message hash&lt;/span&gt;" style="text;strokeColor=none;align=center;fillColor=none;html=1;verticalAlign=middle;whiteSpace=wrap;rounded=0;rotation=90;" vertex="1" parent="1">
          <mxGeometry x="326.57" y="80" width="166.85" height="20" as="geometry" />
        </mxCell>
        <mxCell id="tr2VnkEWY_S0yRt-9hmw-9" value="" style="group" vertex="1" connectable="0" parent="1">
          <mxGeometry x="280" y="480" width="220" height="70" as="geometry" />
        </mxCell>
        <mxCell id="tr2VnkEWY_S0yRt-9hmw-10" value="" style="rounded=1;whiteSpace=wrap;html=1;" vertex="1" parent="tr2VnkEWY_S0yRt-9hmw-9">
          <mxGeometry width="210" height="70" as="geometry" />
        </mxCell>
        <mxCell id="tr2VnkEWY_S0yRt-9hmw-11" value="&lt;span style=&quot;font-size: 18px;&quot;&gt;Share the file hash from message queue&lt;/span&gt;" style="text;strokeColor=none;align=center;fillColor=none;html=1;verticalAlign=middle;whiteSpace=wrap;rounded=0;" vertex="1" parent="tr2VnkEWY_S0yRt-9hmw-9">
          <mxGeometry x="5" y="20" width="210" height="30" as="geometry" />
        </mxCell>
        <mxCell id="tr2VnkEWY_S0yRt-9hmw-14" value="&lt;span style=&quot;font-size: 18px;&quot;&gt;When receiver is live&lt;/span&gt;" style="text;strokeColor=none;align=center;fillColor=none;html=1;verticalAlign=middle;whiteSpace=wrap;rounded=0;rotation=90;" vertex="1" parent="1">
          <mxGeometry x="324.15" y="360" width="176.85" height="20" as="geometry" />
        </mxCell>
        <mxCell id="tr2VnkEWY_S0yRt-9hmw-22" value="" style="group" vertex="1" connectable="0" parent="1">
          <mxGeometry x="10" y="-380" width="330" height="90" as="geometry" />
        </mxCell>
        <mxCell id="tr2VnkEWY_S0yRt-9hmw-23" value="" style="rounded=1;whiteSpace=wrap;html=1;" vertex="1" parent="tr2VnkEWY_S0yRt-9hmw-22">
          <mxGeometry width="301.304347826087" height="90" as="geometry" />
        </mxCell>
        <mxCell id="tr2VnkEWY_S0yRt-9hmw-24" value="&lt;font style=&quot;font-size: 18px;&quot;&gt;Check Receiver Status&amp;nbsp;&lt;/font&gt;&lt;div&gt;&lt;font style=&quot;font-size: 18px;&quot;&gt;(Online or Offline)&lt;/font&gt;&lt;/div&gt;" style="text;strokeColor=none;align=center;fillColor=none;html=1;verticalAlign=middle;whiteSpace=wrap;rounded=0;" vertex="1" parent="tr2VnkEWY_S0yRt-9hmw-22">
          <mxGeometry x="-4.0005739130434765" y="17.5" width="315.6521739130435" height="55" as="geometry" />
        </mxCell>
        <mxCell id="tr2VnkEWY_S0yRt-9hmw-25" value="" style="endArrow=classic;html=1;rounded=0;exitX=0.5;exitY=1;exitDx=0;exitDy=0;" edge="1" parent="1" source="HgYVkoj45hchb5zf_kP9-2">
          <mxGeometry width="50" height="50" relative="1" as="geometry">
            <mxPoint x="170" y="-524" as="sourcePoint" />
            <mxPoint x="155" y="-590" as="targetPoint" />
          </mxGeometry>
        </mxCell>
        <mxCell id="tr2VnkEWY_S0yRt-9hmw-26" value="" style="group" vertex="1" connectable="0" parent="1">
          <mxGeometry x="290" y="640" width="220" height="70" as="geometry" />
        </mxCell>
        <mxCell id="tr2VnkEWY_S0yRt-9hmw-27" value="" style="rounded=1;whiteSpace=wrap;html=1;" vertex="1" parent="tr2VnkEWY_S0yRt-9hmw-26">
          <mxGeometry width="210" height="70" as="geometry" />
        </mxCell>
        <mxCell id="tr2VnkEWY_S0yRt-9hmw-28" value="&lt;span style=&quot;font-size: 18px;&quot;&gt;Notify reciver&lt;/span&gt;" style="text;strokeColor=none;align=center;fillColor=none;html=1;verticalAlign=middle;whiteSpace=wrap;rounded=0;" vertex="1" parent="tr2VnkEWY_S0yRt-9hmw-26">
          <mxGeometry x="5" y="20" width="210" height="30" as="geometry" />
        </mxCell>
        <mxCell id="tr2VnkEWY_S0yRt-9hmw-29" value="" style="endArrow=classic;html=1;rounded=0;" edge="1" parent="1">
          <mxGeometry width="50" height="50" relative="1" as="geometry">
            <mxPoint x="394.5" y="550" as="sourcePoint" />
            <mxPoint x="395" y="640" as="targetPoint" />
          </mxGeometry>
        </mxCell>
        <mxCell id="tr2VnkEWY_S0yRt-9hmw-37" value="" style="group" vertex="1" connectable="0" parent="1">
          <mxGeometry x="10" y="-590" width="330" height="90" as="geometry" />
        </mxCell>
        <mxCell id="tr2VnkEWY_S0yRt-9hmw-38" value="" style="rounded=1;whiteSpace=wrap;html=1;" vertex="1" parent="tr2VnkEWY_S0yRt-9hmw-37">
          <mxGeometry width="301.304347826087" height="90" as="geometry" />
        </mxCell>
        <mxCell id="tr2VnkEWY_S0yRt-9hmw-39" value="&lt;font style=&quot;font-size: 18px;&quot;&gt;Check Sender Status&amp;nbsp;&lt;/font&gt;&lt;div&gt;&lt;font style=&quot;font-size: 18px;&quot;&gt;(Online or Offline)&lt;/font&gt;&lt;/div&gt;" style="text;strokeColor=none;align=center;fillColor=none;html=1;verticalAlign=middle;whiteSpace=wrap;rounded=0;" vertex="1" parent="tr2VnkEWY_S0yRt-9hmw-37">
          <mxGeometry x="-4.0005739130434765" y="17.5" width="315.6521739130435" height="55" as="geometry" />
        </mxCell>
        <mxCell id="tr2VnkEWY_S0yRt-9hmw-42" value="" style="group" vertex="1" connectable="0" parent="1">
          <mxGeometry x="-500" y="-590" width="330" height="90" as="geometry" />
        </mxCell>
        <mxCell id="tr2VnkEWY_S0yRt-9hmw-43" value="" style="rounded=1;whiteSpace=wrap;html=1;" vertex="1" parent="tr2VnkEWY_S0yRt-9hmw-42">
          <mxGeometry width="301.304347826087" height="90" as="geometry" />
        </mxCell>
        <mxCell id="tr2VnkEWY_S0yRt-9hmw-44" value="&lt;span style=&quot;font-size: 18px;&quot;&gt;Store Data locallay&lt;/span&gt;" style="text;strokeColor=none;align=center;fillColor=none;html=1;verticalAlign=middle;whiteSpace=wrap;rounded=0;" vertex="1" parent="tr2VnkEWY_S0yRt-9hmw-42">
          <mxGeometry x="-4.0005739130434765" y="17.5" width="315.6521739130435" height="55" as="geometry" />
        </mxCell>
        <mxCell id="tr2VnkEWY_S0yRt-9hmw-45" value="" style="endArrow=classic;html=1;rounded=0;entryX=0.5;entryY=0;entryDx=0;entryDy=0;exitX=0.5;exitY=1;exitDx=0;exitDy=0;" edge="1" parent="1" source="tr2VnkEWY_S0yRt-9hmw-38" target="tr2VnkEWY_S0yRt-9hmw-23">
          <mxGeometry width="50" height="50" relative="1" as="geometry">
            <mxPoint x="140" y="-280" as="sourcePoint" />
            <mxPoint x="154.23" y="-114" as="targetPoint" />
          </mxGeometry>
        </mxCell>
        <mxCell id="tr2VnkEWY_S0yRt-9hmw-46" value="" style="endArrow=classic;html=1;rounded=0;exitX=0;exitY=0.5;exitDx=0;exitDy=0;entryX=1;entryY=0.5;entryDx=0;entryDy=0;" edge="1" parent="1" source="tr2VnkEWY_S0yRt-9hmw-38" target="tr2VnkEWY_S0yRt-9hmw-43">
          <mxGeometry width="50" height="50" relative="1" as="geometry">
            <mxPoint x="150" y="-270" as="sourcePoint" />
            <mxPoint x="151" y="-40" as="targetPoint" />
          </mxGeometry>
        </mxCell>
        <mxCell id="tr2VnkEWY_S0yRt-9hmw-48" value="&lt;span style=&quot;font-size: 18px;&quot;&gt;If offline&lt;/span&gt;" style="text;strokeColor=none;align=center;fillColor=none;html=1;verticalAlign=middle;whiteSpace=wrap;rounded=0;" vertex="1" parent="1">
          <mxGeometry x="-150" y="-580" width="95" height="30" as="geometry" />
        </mxCell>
        <mxCell id="tr2VnkEWY_S0yRt-9hmw-49" value="" style="endArrow=classic;html=1;rounded=0;exitX=0.5;exitY=1;exitDx=0;exitDy=0;entryX=0;entryY=0.5;entryDx=0;entryDy=0;" edge="1" parent="1">
          <mxGeometry width="50" height="50" relative="1" as="geometry">
            <mxPoint x="-349.3478260869565" y="-498" as="sourcePoint" />
            <mxPoint x="10" y="-333" as="targetPoint" />
            <Array as="points">
              <mxPoint x="-350" y="-330" />
            </Array>
          </mxGeometry>
        </mxCell>
        <mxCell id="tr2VnkEWY_S0yRt-9hmw-50" value="If sender is online" style="text;strokeColor=none;align=center;fillColor=none;html=1;verticalAlign=middle;whiteSpace=wrap;rounded=0;fontSize=18;" vertex="1" parent="1">
          <mxGeometry x="-260" y="-400" width="180" height="30" as="geometry" />
        </mxCell>
        <mxCell id="tr2VnkEWY_S0yRt-9hmw-53" value="" style="curved=1;endArrow=classic;html=1;rounded=0;exitX=0;exitY=0.5;exitDx=0;exitDy=0;entryX=-0.02;entryY=0.415;entryDx=0;entryDy=0;entryPerimeter=0;" edge="1" parent="1" source="HgYVkoj45hchb5zf_kP9-32" target="Id6j_bL2dgH8pBZ8McrD-63">
          <mxGeometry width="50" height="50" relative="1" as="geometry">
            <mxPoint x="-284.00057391304335" y="255" as="sourcePoint" />
            <mxPoint x="250" y="-1010" as="targetPoint" />
            <Array as="points">
              <mxPoint x="-470" y="-200" />
              <mxPoint x="-580" y="-480" />
              <mxPoint x="-460" y="-950" />
              <mxPoint x="70" y="-1140" />
            </Array>
          </mxGeometry>
        </mxCell>
        <mxCell id="tr2VnkEWY_S0yRt-9hmw-55" value="" style="group" vertex="1" connectable="0" parent="1">
          <mxGeometry x="890" y="-1010" width="120" height="60" as="geometry" />
        </mxCell>
        <mxCell id="Id6j_bL2dgH8pBZ8McrD-66" value="" style="rounded=1;whiteSpace=wrap;html=1;arcSize=19;" parent="tr2VnkEWY_S0yRt-9hmw-55" vertex="1">
          <mxGeometry width="120" height="60" as="geometry" />
        </mxCell>
        <mxCell id="Id6j_bL2dgH8pBZ8McrD-78" value="Feedback" style="text;strokeColor=none;align=center;fillColor=none;html=1;verticalAlign=middle;whiteSpace=wrap;rounded=0;" parent="tr2VnkEWY_S0yRt-9hmw-55" vertex="1">
          <mxGeometry x="30" y="15" width="60" height="30" as="geometry" />
        </mxCell>
        <mxCell id="HgYVkoj45hchb5zf_kP9-44" value="" style="rounded=1;whiteSpace=wrap;html=1;" parent="1" vertex="1">
          <mxGeometry x="245" y="180" width="301.304347826087" height="90" as="geometry" />
        </mxCell>
        <mxCell id="HgYVkoj45hchb5zf_kP9-45" value="&lt;span style=&quot;font-size: 18px;&quot;&gt;Store the hash of the data into message queue&lt;/span&gt;" style="text;strokeColor=none;align=center;fillColor=none;html=1;verticalAlign=middle;whiteSpace=wrap;rounded=0;" parent="1" vertex="1">
          <mxGeometry x="237.82942608695652" y="197.5" width="315.6521739130435" height="55" as="geometry" />
        </mxCell>
        <mxCell id="tr2VnkEWY_S0yRt-9hmw-57" value="" style="group" vertex="1" connectable="0" parent="1">
          <mxGeometry x="600" y="-840" width="580" height="275" as="geometry" />
        </mxCell>
        <mxCell id="HgYVkoj45hchb5zf_kP9-23" value="" style="rounded=1;whiteSpace=wrap;html=1;" parent="tr2VnkEWY_S0yRt-9hmw-57" vertex="1">
          <mxGeometry x="460" y="215" width="120" height="60" as="geometry" />
        </mxCell>
        <mxCell id="HgYVkoj45hchb5zf_kP9-11" value="" style="group" parent="tr2VnkEWY_S0yRt-9hmw-57" vertex="1" connectable="0">
          <mxGeometry y="95" width="330" height="90" as="geometry" />
        </mxCell>
        <mxCell id="HgYVkoj45hchb5zf_kP9-12" value="" style="rounded=1;whiteSpace=wrap;html=1;" parent="HgYVkoj45hchb5zf_kP9-11" vertex="1">
          <mxGeometry width="301.304347826087" height="90" as="geometry" />
        </mxCell>
        <mxCell id="HgYVkoj45hchb5zf_kP9-13" value="&lt;span style=&quot;font-size: 18px;&quot;&gt;Retrieve data from data storage&lt;/span&gt;" style="text;strokeColor=none;align=center;fillColor=none;html=1;verticalAlign=middle;whiteSpace=wrap;rounded=0;" parent="HgYVkoj45hchb5zf_kP9-11" vertex="1">
          <mxGeometry x="-4.0005739130434765" y="17.5" width="315.6521739130435" height="55" as="geometry" />
        </mxCell>
        <mxCell id="HgYVkoj45hchb5zf_kP9-18" value="" style="endArrow=classic;html=1;rounded=0;exitX=1;exitY=0.5;exitDx=0;exitDy=0;entryX=0;entryY=0.5;entryDx=0;entryDy=0;" parent="tr2VnkEWY_S0yRt-9hmw-57" source="HgYVkoj45hchb5zf_kP9-12" target="HgYVkoj45hchb5zf_kP9-16" edge="1">
          <mxGeometry width="50" height="50" relative="1" as="geometry">
            <mxPoint x="300" y="375" as="sourcePoint" />
            <mxPoint x="460" y="205" as="targetPoint" />
          </mxGeometry>
        </mxCell>
        <mxCell id="HgYVkoj45hchb5zf_kP9-19" value="" style="endArrow=classic;html=1;rounded=0;entryX=0;entryY=0.5;entryDx=0;entryDy=0;" parent="tr2VnkEWY_S0yRt-9hmw-57" edge="1">
          <mxGeometry width="50" height="50" relative="1" as="geometry">
            <mxPoint x="301" y="141" as="sourcePoint" />
            <mxPoint x="460" y="246" as="targetPoint" />
          </mxGeometry>
        </mxCell>
        <mxCell id="HgYVkoj45hchb5zf_kP9-21" value="" style="group" parent="tr2VnkEWY_S0yRt-9hmw-57" vertex="1" connectable="0">
          <mxGeometry x="460" width="120" height="60" as="geometry" />
        </mxCell>
        <mxCell id="HgYVkoj45hchb5zf_kP9-16" value="" style="rounded=1;whiteSpace=wrap;html=1;" parent="HgYVkoj45hchb5zf_kP9-21" vertex="1">
          <mxGeometry y="5" width="120" height="50" as="geometry" />
        </mxCell>
        <mxCell id="HgYVkoj45hchb5zf_kP9-20" value="Download data" style="text;strokeColor=none;align=center;fillColor=none;html=1;verticalAlign=middle;whiteSpace=wrap;rounded=0;" parent="HgYVkoj45hchb5zf_kP9-21" vertex="1">
          <mxGeometry x="15" y="15" width="90" height="30" as="geometry" />
        </mxCell>
        <mxCell id="tr2VnkEWY_S0yRt-9hmw-15" value="Success" style="text;strokeColor=none;align=center;fillColor=none;html=1;verticalAlign=middle;whiteSpace=wrap;rounded=0;rotation=-36;" vertex="1" parent="tr2VnkEWY_S0yRt-9hmw-57">
          <mxGeometry x="340" y="55" width="60" height="30" as="geometry" />
        </mxCell>
        <mxCell id="tr2VnkEWY_S0yRt-9hmw-16" value="Fail" style="text;strokeColor=none;align=center;fillColor=none;html=1;verticalAlign=middle;whiteSpace=wrap;rounded=0;rotation=-145;" vertex="1" parent="tr2VnkEWY_S0yRt-9hmw-57">
          <mxGeometry x="322.25" y="184.60000000000002" width="60" height="21" as="geometry" />
        </mxCell>
        <mxCell id="HgYVkoj45hchb5zf_kP9-24" value="Report an issue" style="text;strokeColor=none;align=center;fillColor=none;html=1;verticalAlign=middle;whiteSpace=wrap;rounded=0;" parent="tr2VnkEWY_S0yRt-9hmw-57" vertex="1">
          <mxGeometry x="475" y="230" width="90" height="30" as="geometry" />
        </mxCell>
        <mxCell id="tr2VnkEWY_S0yRt-9hmw-60" value="" style="curved=1;endArrow=classic;html=1;rounded=0;exitX=1;exitY=0.5;exitDx=0;exitDy=0;entryX=1.007;entryY=0.413;entryDx=0;entryDy=0;entryPerimeter=0;" edge="1" parent="1" source="tr2VnkEWY_S0yRt-9hmw-2" target="Id6j_bL2dgH8pBZ8McrD-63">
          <mxGeometry width="50" height="50" relative="1" as="geometry">
            <mxPoint x="1486" y="175" as="sourcePoint" />
            <mxPoint x="510" y="-1000" as="targetPoint" />
            <Array as="points">
              <mxPoint x="1100" y="-190" />
              <mxPoint x="1310" y="-610" />
              <mxPoint x="1100" y="-1210" />
            </Array>
          </mxGeometry>
        </mxCell>
        <mxCell id="tr2VnkEWY_S0yRt-9hmw-62" value="" style="curved=1;endArrow=classic;html=1;rounded=0;entryX=1.012;entryY=0.488;entryDx=0;entryDy=0;entryPerimeter=0;exitX=0.5;exitY=0;exitDx=0;exitDy=0;" edge="1" parent="1" source="HgYVkoj45hchb5zf_kP9-16" target="Id6j_bL2dgH8pBZ8McrD-63">
          <mxGeometry width="50" height="50" relative="1" as="geometry">
            <mxPoint x="990" y="-920" as="sourcePoint" />
            <mxPoint x="1040" y="-970" as="targetPoint" />
            <Array as="points">
              <mxPoint x="1120" y="-986" />
              <mxPoint x="980" y="-1060" />
            </Array>
          </mxGeometry>
        </mxCell>
      </root>
    </mxGraphModel>
  </diagram>
</mxfile>
